<svg width="1920" height="871" viewBox="0 0 1920 871" fill="none" xmlns="http://www.w3.org/2000/svg">
<path d="M0 870.5C0 820.5 154 862.5 232.5 803.5C311 744.5 382 767 471.5 711.5C561 656 561 578 733.5 512C906 446 1081.11 561.797 1246.11 464.797C1411.11 367.797 1409.11 169.797 1536.61 108.297C1664.11 46.7969 1650.11 169.797 1798.61 160.297C1835.5 157.937 1883.58 183.324 1923 218.5" stroke="#43790D" stroke-width="4"/>
<path d="M1630.59 23.0794C1628.17 22.4505 1628.17 22.4498 1628.17 22.4491L1628.17 22.4475L1628.17 22.4439L1628.17 22.4351L1628.18 22.4108C1628.18 22.3918 1628.19 22.3669 1628.2 22.3365C1628.22 22.2757 1628.24 22.1926 1628.27 22.089C1628.33 21.8819 1628.43 21.5922 1628.55 21.234C1628.8 20.5184 1629.19 19.5241 1629.74 18.365C1630.85 16.0562 1632.65 13.0376 1635.42 10.2703C1637.96 7.74058 1640.98 5.78813 1643.4 4.50282C1644.62 3.8569 1645.73 3.35745 1646.6 3.02711C1647.02 2.86453 1647.44 2.72542 1647.81 2.63369C1647.98 2.58932 1648.21 2.53979 1648.46 2.51563C1648.58 2.50355 1648.76 2.49234 1648.97 2.50691C1649.15 2.5193 1649.54 2.56089 1649.97 2.77372C1650.61 3.09079 1651.17 3.67919 1651.39 4.49372C1651.58 5.18594 1651.46 5.77812 1651.36 6.0911C1651.18 6.69573 1650.83 7.21223 1650.61 7.51477C1650.6 7.53689 1650.58 7.55919 1650.56 7.58166C1650.65 7.56403 1650.74 7.54834 1650.83 7.53489C1651.3 7.46234 1651.98 7.4248 1652.69 7.65841C1653.68 7.98539 1654.27 8.70793 1654.58 9.29653C1654.88 9.8698 1655.01 10.4729 1655.08 10.9706C1655.21 11.976 1655.13 13.1107 1654.94 14.1631C1654.76 15.2397 1654.44 16.377 1654 17.4177C1653.58 18.425 1652.98 19.5138 1652.14 20.3413C1651.61 20.8687 1651.08 21.3318 1650.64 21.7178C1650.6 21.7466 1650.57 21.775 1650.54 21.8029C1650.05 22.2288 1649.7 22.5408 1649.42 22.8413C1649.26 23.0146 1649.14 23.1632 1649.05 23.3002C1649.46 23.5518 1650 23.8541 1650.68 24.2209C1650.99 24.3873 1651.32 24.5638 1651.66 24.7497C1653.34 25.641 1655.42 26.7499 1657.34 28.0142L1657.47 28.0989L1657.59 28.1989C1660.2 30.4141 1662.82 32.4451 1664.82 33.9738C1665.04 34.1474 1665.26 34.3154 1665.47 34.4772C1666.18 35.0193 1666.8 35.4902 1667.26 35.855C1667.56 36.089 1667.83 36.3109 1668.04 36.4965C1668.14 36.5835 1668.28 36.7077 1668.41 36.8476C1668.47 36.913 1668.58 37.041 1668.7 37.2124C1668.7 37.2142 1668.7 37.2167 1668.7 37.2199C1668.76 37.3027 1669.13 37.8495 1669.13 38.6349C1669.13 39.7664 1668.44 40.4572 1668.04 40.7455C1667.86 40.8755 1667.68 40.9702 1667.53 41.0388C1667.88 41.2915 1668.23 41.5494 1668.6 41.8088C1669.02 42.1101 1669.44 42.4147 1669.86 42.7134C1670.68 43.297 1671.47 43.8578 1672.11 44.3258C1672.59 44.679 1673.03 45.0132 1673.37 45.2884C1673.53 45.4202 1673.72 45.5821 1673.88 45.752C1673.96 45.832 1674.1 45.973 1674.23 46.1566C1674.29 46.2492 1674.39 46.4025 1674.48 46.6047C1674.57 46.7852 1674.72 47.1642 1674.72 47.6671C1674.72 48.6269 1674.21 49.2713 1673.88 49.5819C1673.56 49.8778 1673.24 50.0382 1673.07 50.1144C1672.72 50.2725 1672.35 50.3614 1672.13 50.4111C1672.12 50.4134 1672.11 50.4156 1672.1 50.4179C1673.16 51.6898 1674.56 53.2894 1676.08 54.941C1677.71 56.702 1679.45 58.4968 1681.02 59.995C1682.63 61.5382 1683.93 62.6269 1684.7 63.1029C1686.48 64.2039 1688.54 65.0091 1690.87 65.8161C1691.35 65.9847 1691.85 66.1547 1692.37 66.3281C1694.22 66.957 1696.21 67.6322 1698.1 68.4605C1700.75 69.6265 1703.02 71.4746 1704.7 72.9444C1705.12 73.3067 1705.47 73.6207 1705.78 73.9047C1706.17 74.2506 1706.51 74.552 1706.85 74.8416C1707.13 75.0841 1707.35 75.2507 1707.5 75.3595C1707.52 75.37 1707.53 75.3794 1707.54 75.3878C1707.59 75.3926 1707.66 75.3983 1707.74 75.4036C1708.03 75.421 1708.41 75.4273 1708.88 75.4235C1709.53 75.4184 1710.26 75.396 1711.04 75.372C1711.41 75.3605 1711.8 75.3487 1712.19 75.3381C1713.36 75.3068 1714.62 75.2875 1715.67 75.3494C1716.18 75.3801 1716.74 75.4349 1717.24 75.5435C1717.61 75.6244 1718.48 75.8313 1719.16 76.4982C1719.8 77.1388 1720.13 78.0913 1719.89 79.0692C1719.72 79.8094 1719.28 80.2917 1719.07 80.4996C1718.63 80.9503 1718.04 81.301 1717.62 81.5376C1716.85 81.974 1715.79 82.4651 1714.79 82.9301C1714.62 83.0126 1714.44 83.0943 1714.27 83.1748C1713.05 83.7468 1711.94 84.2847 1711.15 84.7761C1710.98 84.8822 1710.84 84.9734 1710.74 85.0491C1710.66 86.4431 1710.43 88.7226 1710.17 90.869C1709.86 93.4601 1709.46 96.2658 1709.16 97.4555C1708.96 98.2639 1708.55 99.112 1708.18 99.8154C1707.79 100.556 1707.32 101.33 1706.92 102.014L1706.84 102.141C1706.46 102.77 1706.14 103.304 1705.9 103.746C1706.05 103.985 1706.24 104.273 1706.46 104.608C1706.78 105.098 1707.16 105.653 1707.57 106.263L1707.66 106.402C1708.11 107.063 1708.59 107.778 1709.08 108.512C1710.04 109.969 1711.04 111.552 1711.81 112.99C1712.2 113.708 1712.55 114.436 1712.81 115.126C1713.05 115.772 1713.3 116.587 1713.3 117.416C1713.3 118.355 1713.08 120.381 1712.8 122.672C1712.52 125.044 1712.13 127.914 1711.75 130.679C1711.37 133.446 1710.99 136.117 1710.7 138.096C1710.56 139.086 1710.44 139.903 1710.36 140.473C1710.32 140.757 1710.28 140.981 1710.26 141.133L1710.23 141.306L1710.23 141.351L1710.23 141.362L1710.23 141.365L1710.23 141.366C1710.23 141.366 1710.23 141.366 1707.75 141L1710.23 141.366L1709.7 144.91L1706.56 143.195L1698.3 138.695L1694.01 136.356L1698.42 134.245L1698.42 134.245L1698.42 134.245L1698.43 134.242L1698.45 134.231L1698.55 134.184C1698.63 134.143 1698.75 134.084 1698.9 134.012C1699.2 133.866 1699.59 133.667 1700 133.456C1700.3 133.302 1700.59 133.147 1700.85 133.003C1700.86 132.734 1700.86 132.412 1700.86 132.043C1700.84 130.725 1700.75 128.947 1700.57 127.068C1700.38 125.184 1700.11 123.254 1699.74 121.616C1699.35 119.875 1698.93 118.811 1698.62 118.378C1698.53 118.258 1698.26 117.97 1697.67 117.498C1697.12 117.054 1696.42 116.556 1695.62 115.999C1695.26 115.75 1694.87 115.489 1694.48 115.218C1693.17 114.323 1691.71 113.328 1690.47 112.358C1686.73 109.421 1684.35 106.594 1683.42 105.379C1682.74 104.483 1682.36 103.339 1682.09 102.449C1681.96 101.993 1681.79 101.351 1681.62 100.744C1681.5 100.29 1681.39 99.8563 1681.3 99.5338C1680.71 97.4536 1680.13 96.3521 1679.47 95.9193C1678.91 95.5506 1677.79 94.9983 1676.23 94.322C1674.72 93.6673 1672.95 92.9598 1671.18 92.2733C1670.07 91.8398 1668.98 91.4234 1667.96 91.0352C1667.36 90.8058 1666.78 90.5863 1666.24 90.379C1664.86 89.8489 1663.62 89.3623 1662.99 89.0479C1662.27 88.6945 1661.11 87.9056 1659.96 87.1007C1659.29 86.6316 1658.52 86.0898 1657.74 85.533C1657.11 85.0919 1656.48 84.6415 1655.87 84.2104C1654.44 83.2085 1653.08 82.2694 1651.99 81.586C1651.44 81.2418 1651 80.9915 1650.69 80.8355C1650.65 80.8157 1650.62 80.7989 1650.59 80.7845C1650.03 80.8122 1649.24 80.91 1648.48 81.0876C1648.03 81.1923 1647.65 81.3114 1647.36 81.4311C1647.14 81.5224 1647.05 81.5839 1647.04 81.5901C1646.75 81.8672 1646.32 82.1814 1645.99 82.4265C1645.58 82.725 1645.06 83.0882 1644.49 83.4841C1644.33 83.5975 1644.16 83.7142 1643.99 83.8337C1642.95 84.5583 1641.76 85.3857 1640.61 86.2245C1639.25 87.211 1638.02 88.1577 1637.18 88.9202C1636.95 89.1213 1636.78 89.2882 1636.65 89.4211C1636.63 90.3072 1636.31 91.0669 1636.11 91.4918C1635.75 92.2534 1635.25 92.9974 1634.81 93.595C1634.5 94.0219 1634.17 94.4584 1633.9 94.8039C1633.79 94.9374 1633.7 95.0573 1633.62 95.1578C1633.53 95.2766 1633.47 95.3661 1633.42 95.4322C1633.25 95.8662 1632.96 96.2345 1632.62 96.5048C1632.16 96.8681 1631.69 96.9779 1631.48 97.0169C1631.06 97.0974 1630.68 97.06 1630.54 97.0441C1630.17 97.004 1629.76 96.91 1629.42 96.8237C1628.7 96.6402 1627.78 96.355 1626.91 96.0751C1626.51 95.9484 1625.95 95.765 1625.44 95.5993C1625.04 95.4669 1624.66 95.3459 1624.44 95.2739C1624.09 95.1623 1623.82 95.0767 1623.62 95.0206C1623.59 95.0118 1623.57 95.0044 1623.55 94.9983C1622.92 94.948 1622.01 94.769 1621.19 94.5395C1620.67 94.391 1620.07 94.1935 1619.51 93.9368C1618.97 93.6939 1618.3 93.3277 1617.74 92.778C1617.16 92.2024 1616.83 91.3703 1616.94 90.4724C1617.03 89.7405 1617.39 89.2247 1617.6 88.971C1618 88.4578 1618.56 88.0652 1618.93 87.8142C1619.75 87.2739 1620.88 86.6803 1621.88 86.1552L1621.94 86.1227C1623.03 85.5496 1624.02 85.0312 1624.73 84.5734C1624.91 84.464 1625.04 84.3731 1625.14 84.3008C1625.2 84.103 1625.28 83.9426 1625.34 83.8288C1625.49 83.5158 1625.69 83.2331 1625.86 82.9994C1626.21 82.5297 1626.66 82.0347 1627.12 81.5593C1628.06 80.5996 1629.29 79.4822 1630.46 78.4229C1630.68 78.2251 1630.9 78.0292 1631.12 77.836C1632.08 76.9676 1632.99 76.1519 1633.73 75.4484C1634.18 75.0185 1634.52 74.6705 1634.75 74.4084C1634.82 74.3306 1634.87 74.271 1634.91 74.2282C1635.16 73.5925 1635.55 72.9525 1635.91 72.4158C1636.35 71.7621 1636.88 71.0488 1637.44 70.3387C1638.15 69.4239 1638.97 68.4264 1639.73 67.5123C1640.12 67.0325 1640.5 66.5757 1640.83 66.1659C1641.09 65.8401 1641.46 65.1843 1641.85 64.1596C1642.23 63.1747 1642.58 61.9984 1642.88 60.7554C1643.49 58.2352 1643.83 55.6831 1643.83 54.1903C1643.83 53.6611 1643.74 53.0826 1643.59 52.4936C1643.58 52.5248 1643.56 52.5559 1643.55 52.5868C1643.2 53.3318 1642.7 54.2637 1641.99 54.9648C1641.16 55.7901 1639.94 56.8543 1638.93 57.6567C1638.43 58.0481 1637.91 58.4393 1637.46 58.7098C1637.29 58.8142 1636.91 59.0427 1636.46 59.1661L1636.45 59.167C1636.29 59.2105 1635.6 59.401 1634.79 59.0891C1634.3 58.8985 1633.83 58.5389 1633.52 58.0008C1633.22 57.5009 1633.16 57.0162 1633.16 56.6993C1633.16 56.2305 1633.31 55.8197 1633.33 55.7605C1633.33 55.7575 1633.33 55.7554 1633.33 55.7543C1633.38 55.602 1633.44 55.4446 1633.49 55.3045C1633.61 55.0188 1633.76 54.6663 1633.92 54.2944C1634.08 53.9406 1634.24 53.5849 1634.41 53.2156C1634.52 52.9594 1634.64 52.6967 1634.76 52.4235C1634.27 52.5581 1633.69 52.676 1633.13 52.676C1631.7 52.676 1630.48 52.1568 1629.59 51.1239C1628.85 50.2712 1628.47 49.2039 1628.22 48.466C1628.03 47.8929 1627.99 47.2764 1627.99 46.8752C1627.98 46.4058 1628 45.8811 1628.03 45.352C1628.09 44.3424 1628.22 43.1432 1628.34 41.9884L1628.36 41.8266C1628.48 40.5917 1628.6 39.4089 1628.66 38.4147C1628.69 37.9192 1628.71 37.5072 1628.7 37.1842C1628.69 36.9077 1628.68 36.7747 1628.67 36.7426C1628.67 36.7334 1628.67 36.7325 1628.67 36.7389C1628.46 35.9077 1628.26 35.4202 1628.05 34.9558C1628.02 34.8702 1627.97 34.7784 1627.93 34.6801C1627.72 34.2328 1627.45 33.6509 1627.2 32.9105C1627.01 32.3432 1626.98 31.742 1626.97 31.3409C1626.96 30.8791 1626.99 30.3732 1627.02 29.8713C1627.1 28.864 1627.26 27.7122 1627.42 26.6522C1627.58 25.5839 1627.76 24.5693 1627.9 23.8243C1627.97 23.451 1628.03 23.1433 1628.07 22.9279C1628.09 22.8201 1628.11 22.7354 1628.12 22.6769L1628.13 22.6093L1628.14 22.5911L1628.14 22.5859L1628.14 22.5844L1628.14 22.5839C1628.14 22.5837 1628.14 22.5836 1630.59 23.0794ZM1630.59 23.0794L1628.17 22.4505L1628.15 22.5166L1628.14 22.5836L1630.59 23.0794ZM1669.68 50.9209C1669.68 50.9209 1669.69 50.9187 1669.7 50.914C1669.69 50.9185 1669.68 50.9209 1669.68 50.9209ZM1710.43 85.3037C1710.43 85.3036 1710.45 85.2922 1710.46 85.2697C1710.44 85.2925 1710.43 85.3038 1710.43 85.3037ZM1705.62 104.347C1705.62 104.347 1705.62 104.335 1705.63 104.312C1705.62 104.336 1705.61 104.348 1705.62 104.347ZM1716.27 80.455C1716.27 80.4543 1716.26 80.4479 1716.22 80.4382C1716.25 80.4509 1716.27 80.4558 1716.27 80.455ZM1634.81 54.4691C1634.81 54.4695 1634.82 54.4652 1634.84 54.4548C1634.82 54.4634 1634.81 54.4687 1634.81 54.4691ZM1641.19 22.3436C1641.19 22.3433 1641.19 22.335 1641.2 22.3198C1641.19 22.3363 1641.19 22.3438 1641.19 22.3436ZM1640.5 20.5588C1640.49 20.555 1640.49 20.5532 1640.49 20.5535C1640.49 20.5536 1640.49 20.5551 1640.5 20.5576C1640.5 20.558 1640.5 20.5584 1640.5 20.5588ZM1701.56 132.583C1701.56 132.583 1701.55 132.585 1701.55 132.589C1701.55 132.585 1701.56 132.583 1701.56 132.583ZM1650.43 80.715C1650.41 80.7071 1650.41 80.71 1650.44 80.7178C1650.43 80.7166 1650.43 80.7157 1650.43 80.715ZM1636.38 89.7376C1636.38 89.7373 1636.38 89.7345 1636.39 89.7293C1636.38 89.7352 1636.38 89.7379 1636.38 89.7376ZM1623.43 94.9687C1623.43 94.9687 1623.44 94.9721 1623.47 94.977C1623.46 94.9758 1623.46 94.9749 1623.45 94.9742C1623.44 94.9703 1623.43 94.9687 1623.43 94.9687Z" stroke="#43790D" stroke-width="5"/>
</svg>
