<svg width="171" height="70" viewBox="0 0 171 70" fill="none" xmlns="http://www.w3.org/2000/svg">
<g clip-path="url(#clip0_709_175)">
<path d="M48.0272 54.0125L42.3598 13.0696L11.6526 17.3201L16.9658 55.7041C17.0597 56.3828 17.4194 56.9963 17.9657 57.4098C18.512 57.8233 19.2002 58.0028 19.8789 57.9088L48.0272 54.0125ZM56.4124 58.0677L20.5873 63.0267C18.5513 63.3085 16.4867 62.77 14.8478 61.5296C13.2088 60.2892 12.1297 58.4485 11.8479 56.4125L6.18051 15.4696C6.08656 14.7909 6.26607 14.1027 6.67953 13.5564C7.093 13.0101 7.70656 12.6504 8.38523 12.5564L44.2103 7.59747C44.889 7.50353 45.5772 7.68304 46.1235 8.0965C46.6698 8.50997 47.0295 9.12352 47.1235 9.8022L49.6029 27.7147L59.8387 26.2979L63.0266 49.3283C63.3084 51.3643 62.7699 53.4289 61.5295 55.0679C60.2891 56.7068 58.4484 57.7859 56.4124 58.0677ZM50.3114 32.8326L52.7908 50.7451C52.8848 51.4238 53.2445 52.0374 53.7908 52.4508C54.3371 52.8643 55.0253 53.0438 55.704 52.9499C56.3827 52.8559 56.9962 52.4962 57.4097 51.9499C57.8232 51.4036 58.0027 50.7154 57.9087 50.0367L55.4292 32.1242L50.3114 32.8326ZM17.4789 21.7295L32.8325 19.6043L34.9578 34.9579L19.6041 37.0831L17.4789 21.7295ZM23.3052 26.139L24.0136 31.2569L29.1315 30.5484L28.423 25.4306L23.3052 26.139ZM19.9584 39.6421L40.4298 36.8084L41.1383 41.9263L20.6668 44.7599L19.9584 39.6421ZM21.021 47.3189L41.4925 44.4852L42.2009 49.6031L21.7294 52.4368L21.021 47.3189Z" fill="#43790D"/>
</g>
<path d="M92.0723 57.1902L94.4749 15.9268L63.5273 14.1248L61.2749 52.8092C61.235 53.4932 61.4685 54.165 61.924 54.6768C62.3795 55.1886 63.0197 55.4986 63.7037 55.5384L92.0723 57.1902ZM99.5088 62.7986L63.4033 60.6963C61.3514 60.5768 59.4309 59.6471 58.0645 58.1117C56.698 56.5762 55.9974 54.5609 56.1169 52.5089L58.5196 11.2455C58.5594 10.5615 58.8693 9.92134 59.3811 9.46585C59.8929 9.01036 60.5647 8.77684 61.2487 8.81667L97.3542 10.919C98.0382 10.9588 98.6784 11.2687 99.1338 11.7805C99.5893 12.2923 99.8228 12.9641 99.783 13.6481L98.7319 31.7009L109.048 32.3015L107.696 55.5122C107.577 57.5642 106.647 59.4846 105.112 60.8511C103.576 62.2176 101.561 62.9181 99.5088 62.7986ZM98.4315 36.8588L97.3804 54.9116C97.3405 55.5956 97.5741 56.2673 98.0295 56.7792C98.485 57.291 99.1252 57.6009 99.8092 57.6407C100.493 57.6805 101.165 57.447 101.677 56.9915C102.189 56.536 102.498 55.8959 102.538 55.2119L103.589 37.1591L98.4315 36.8588ZM68.3849 19.583L83.8587 20.484L82.9577 35.9578L67.4839 35.0568L68.3849 19.583ZM73.2425 25.0413L72.9422 30.1992L78.1001 30.4996L78.4005 25.3416L73.2425 25.0413ZM67.3338 37.6358L87.9655 38.8371L87.6652 43.995L67.0334 42.7937L67.3338 37.6358ZM66.8833 45.3727L87.515 46.574L87.2147 51.7319L66.5829 50.5306L66.8833 45.3727Z" fill="#43790D"/>
<path d="M149.672 56.3193L148.486 15.003L117.499 15.8923L118.61 54.6264C118.63 55.3112 118.921 55.9602 119.419 56.4306C119.917 56.901 120.582 57.1542 121.267 57.1345L149.672 56.3193ZM157.567 61.2616L121.415 62.2991C119.36 62.358 117.366 61.5984 115.872 60.1873C114.377 58.7762 113.505 56.8292 113.446 54.7746L112.26 13.4582C112.24 12.7734 112.493 12.1088 112.964 11.6106C113.434 11.1124 114.083 10.8215 114.768 10.8019L150.92 9.76436C151.605 9.7447 152.269 9.99791 152.767 10.4683C153.266 10.9387 153.557 11.5877 153.576 12.2725L154.095 30.3484L164.424 30.052L165.091 53.2924C165.15 55.347 164.39 57.3409 162.979 58.8354C161.568 60.3299 159.621 61.2026 157.567 61.2616ZM154.243 35.513L154.762 53.5888C154.782 54.2737 155.073 54.9227 155.571 55.3931C156.069 55.8635 156.733 56.1167 157.418 56.097C158.103 56.0774 158.752 55.7864 159.223 55.2883C159.693 54.7901 159.946 54.1255 159.926 53.4406L159.408 35.3647L154.243 35.513ZM122.811 20.9086L138.305 20.464L138.75 35.9576L123.256 36.4023L122.811 20.9086ZM128.124 25.925L128.272 31.0895L133.437 30.9413L133.289 25.7767L128.124 25.925ZM123.33 38.9845L143.988 38.3917L144.136 43.5562L123.478 44.1491L123.33 38.9845ZM123.552 46.7313L144.211 46.1385L144.359 51.303L123.701 51.8959L123.552 46.7313Z" fill="#43790D"/>
<defs>
<clipPath id="clip0_709_175">
<rect width="62" height="62" fill="white" transform="translate(0 8.50098) rotate(-7.88089)"/>
</clipPath>
</defs>
</svg>
