<svg width="182" height="54" viewBox="0 0 182 54" fill="none" xmlns="http://www.w3.org/2000/svg">
<path d="M61.0913 23V7.70048H63.3118V14.2984H70.9616V7.70048H73.1928V23H70.9616V16.3915H63.3118V23H61.0913ZM79.418 23.3187C78.568 23.3187 77.8562 23.1629 77.2824 22.8513C76.7087 22.5325 76.2731 22.1146 75.9756 21.5975C75.6852 21.0734 75.54 20.4997 75.54 19.8763C75.54 19.2955 75.6427 18.7855 75.8481 18.3464C76.0535 17.9072 76.3581 17.5354 76.7618 17.2308C77.1656 16.9191 77.6614 16.6677 78.2493 16.4765C78.7593 16.3277 79.3365 16.1967 79.9811 16.0833C80.6257 15.97 81.3021 15.8638 82.0104 15.7646C82.7258 15.6654 83.4341 15.5663 84.1354 15.4671L83.3279 15.9133C83.342 15.0138 83.1508 14.348 82.7541 13.9159C82.3646 13.4768 81.6917 13.2572 80.7355 13.2572C80.1334 13.2572 79.5809 13.3988 79.078 13.6822C78.5751 13.9584 78.2245 14.4188 78.0262 15.0634L75.9544 14.4259C76.2377 13.4413 76.776 12.6587 77.5693 12.0778C78.3697 11.497 79.4322 11.2066 80.7567 11.2066C81.7838 11.2066 82.6762 11.3837 83.4341 11.7379C84.1991 12.0849 84.7587 12.6374 85.1128 13.3953C85.297 13.7707 85.4103 14.1674 85.4528 14.5853C85.4953 15.0032 85.5166 15.4529 85.5166 15.9346V23H83.551V20.3757L83.9335 20.7157C83.4589 21.594 82.8533 22.2492 82.1167 22.6813C81.3871 23.1062 80.4875 23.3187 79.418 23.3187ZM79.8111 21.5019C80.4415 21.5019 80.9834 21.3921 81.4367 21.1726C81.89 20.9459 82.2548 20.659 82.531 20.312C82.8073 19.9649 82.9879 19.6036 83.0729 19.2282C83.1933 18.8883 83.2606 18.5058 83.2748 18.0808C83.296 17.6558 83.3066 17.3158 83.3066 17.0608L84.0291 17.3264C83.3279 17.4327 82.6904 17.5283 82.1167 17.6133C81.5429 17.6983 81.0223 17.7833 80.5548 17.8683C80.0944 17.9462 79.6836 18.0418 79.3224 18.1552C79.0178 18.2614 78.7451 18.3889 78.5043 18.5376C78.2705 18.6864 78.0828 18.867 77.9412 19.0795C77.8066 19.292 77.7393 19.5505 77.7393 19.8551C77.7393 20.1526 77.8137 20.4288 77.9624 20.6838C78.1112 20.9317 78.3378 21.1301 78.6424 21.2788C78.947 21.4275 79.3365 21.5019 79.8111 21.5019ZM88.2755 23V11.5254H90.2517V14.309L89.9754 13.9478C90.1171 13.5795 90.3013 13.243 90.5279 12.9384C90.7546 12.6268 91.0166 12.3718 91.3141 12.1735C91.6045 11.961 91.9268 11.7981 92.281 11.6847C92.6422 11.5643 93.0105 11.4935 93.386 11.4722C93.7614 11.4439 94.1226 11.4616 94.4697 11.5254V13.6078C94.0943 13.5086 93.6764 13.4803 93.216 13.5228C92.7626 13.5653 92.3447 13.7105 91.9622 13.9584C91.601 14.1921 91.3141 14.4755 91.1016 14.8084C90.8962 15.1413 90.7475 15.5132 90.6554 15.924C90.5633 16.3277 90.5173 16.7562 90.5173 17.2096V23H88.2755ZM95.4305 23V22.6494L101.943 13.5122H96.0255V11.5254H105.471V11.8866L98.9685 21.0132H105.152V23H95.4305ZM107.792 23L107.802 7.70048H110.055V17.0502L114.56 11.5254H117.386L112.626 17.2627L117.875 23H114.857L110.055 17.4752V23H107.792ZM119.158 23V7.38174H121.379V23H119.158ZM128.894 23.3081C128.1 23.3081 127.435 23.1806 126.896 22.9256C126.358 22.6706 125.919 22.3377 125.579 21.9269C125.246 21.509 124.991 21.0557 124.814 20.567C124.637 20.0782 124.516 19.6001 124.453 19.1326C124.389 18.6651 124.357 18.2543 124.357 17.9002V11.5254H126.609V17.1671C126.609 17.6133 126.645 18.0737 126.716 18.5483C126.794 19.0157 126.935 19.4514 127.141 19.8551C127.353 20.2588 127.647 20.5847 128.023 20.8326C128.405 21.0805 128.901 21.2044 129.51 21.2044C129.907 21.2044 130.282 21.1407 130.636 21.0132C130.99 20.8786 131.298 20.6661 131.561 20.3757C131.83 20.0853 132.039 19.7028 132.187 19.2282C132.343 18.7537 132.421 18.1764 132.421 17.4964L133.802 18.017C133.802 19.0582 133.608 19.9791 133.218 20.7794C132.828 21.5728 132.269 22.1925 131.539 22.6388C130.81 23.085 129.928 23.3081 128.894 23.3081ZM132.687 23V19.6851H132.421V11.5254H134.663V23H132.687ZM143.03 23.3187C141.932 23.3187 141.011 23.0531 140.267 22.5219C139.523 21.9836 138.96 21.2576 138.578 20.3438C138.195 19.4301 138.004 18.3995 138.004 17.2521C138.004 16.1046 138.192 15.074 138.567 14.1603C138.95 13.2466 139.509 12.5276 140.246 12.0035C140.99 11.4722 141.903 11.2066 142.987 11.2066C144.064 11.2066 144.992 11.4722 145.771 12.0035C146.557 12.5276 147.163 13.2466 147.588 14.1603C148.013 15.0669 148.225 16.0975 148.225 17.2521C148.225 18.3995 148.013 19.4337 147.588 20.3545C147.17 21.2682 146.571 21.9907 145.792 22.5219C145.02 23.0531 144.099 23.3187 143.03 23.3187ZM137.632 23V7.70048H139.863V14.7446H139.608V23H137.632ZM142.721 21.3107C143.43 21.3107 144.014 21.1301 144.475 20.7688C144.942 20.4076 145.289 19.9224 145.516 19.3132C145.749 18.697 145.866 18.0099 145.866 17.2521C145.866 16.5012 145.749 15.8213 145.516 15.2121C145.289 14.603 144.938 14.1178 144.464 13.7565C143.989 13.3953 143.384 13.2147 142.647 13.2147C141.953 13.2147 141.379 13.3847 140.926 13.7247C140.48 14.0647 140.147 14.5392 139.927 15.1484C139.715 15.7575 139.608 16.4587 139.608 17.2521C139.608 18.0454 139.715 18.7466 139.927 19.3557C140.14 19.9649 140.476 20.443 140.936 20.7901C141.397 21.1371 141.992 21.3107 142.721 21.3107Z" fill="white"/>
<path d="M61.3888 46.8325V28.4731H64.8567V36.0209H73.0674V28.4731H76.5353V46.8325H73.0674V39.2593H64.8567V46.8325H61.3888ZM86.311 47.215C84.9256 47.215 83.7101 46.9048 82.6647 46.2843C81.6192 45.6638 80.8032 44.8096 80.2167 43.7216C79.6388 42.6252 79.3498 41.3672 79.3498 39.9477C79.3498 38.5113 79.6473 37.2491 80.2422 36.1611C80.8372 35.0646 81.6574 34.2104 82.7029 33.5984C83.7484 32.9865 84.9511 32.6805 86.311 32.6805C87.6965 32.6805 88.912 32.9907 89.9574 33.6112C91.0114 34.2317 91.8316 35.0901 92.4181 36.1866C93.0046 37.2746 93.2978 38.5283 93.2978 39.9477C93.2978 41.3757 93.0003 42.6379 92.4054 43.7344C91.8189 44.8223 90.9987 45.6766 89.9447 46.297C88.8992 46.909 87.688 47.215 86.311 47.215ZM86.311 43.9766C87.4245 43.9766 88.2532 43.6026 88.7972 42.8546C89.3497 42.0982 89.6259 41.1292 89.6259 39.9477C89.6259 38.7238 89.3455 37.7463 88.7845 37.0153C88.232 36.2843 87.4075 35.9189 86.311 35.9189C85.5546 35.9189 84.9341 36.0889 84.4496 36.4288C83.9651 36.7688 83.6039 37.2406 83.3659 37.8441C83.1364 38.4475 83.0217 39.1488 83.0217 39.9477C83.0217 41.1802 83.2979 42.1619 83.8504 42.8929C84.4114 43.6154 85.2316 43.9766 86.311 43.9766ZM105.485 46.8325V40.3302C105.485 40.0157 105.468 39.6162 105.434 39.1318C105.4 38.6388 105.294 38.1458 105.116 37.6528C104.937 37.1598 104.644 36.7476 104.236 36.4161C103.836 36.0846 103.267 35.9189 102.527 35.9189C102.23 35.9189 101.911 35.9656 101.571 36.0591C101.231 36.1526 100.912 36.3353 100.615 36.6073C100.317 36.8708 100.071 37.2618 99.8754 37.7803C99.6884 38.2988 99.5949 38.9873 99.5949 39.8457L97.606 38.9023C97.606 37.8143 97.827 36.7943 98.269 35.8424C98.711 34.8904 99.3739 34.1212 100.258 33.5347C101.15 32.9482 102.272 32.655 103.624 32.655C104.703 32.655 105.583 32.8377 106.263 33.2032C106.943 33.5687 107.47 34.0319 107.844 34.5929C108.226 35.1539 108.498 35.7404 108.66 36.3523C108.821 36.9558 108.919 37.5083 108.953 38.0098C108.987 38.5113 109.004 38.8768 109.004 39.1063V46.8325H105.485ZM96.076 46.8325V28.4731H99.1615V37.9078H99.5949V46.8325H96.076ZM118.713 47.215C117.302 47.215 116.057 46.9133 114.977 46.3098C113.906 45.6978 113.065 44.8606 112.453 43.7981C111.849 42.7271 111.547 41.5032 111.547 40.1262C111.547 38.6218 111.845 37.3128 112.44 36.1994C113.035 35.0859 113.855 34.2232 114.901 33.6112C115.946 32.9907 117.149 32.6805 118.509 32.6805C119.954 32.6805 121.182 33.0205 122.193 33.7004C123.205 34.3804 123.953 35.3366 124.437 36.5691C124.922 37.8016 125.092 39.2508 124.947 40.9167H121.518V39.6417C121.518 38.2393 121.292 37.2321 120.842 36.6201C120.4 35.9996 119.673 35.6894 118.662 35.6894C117.48 35.6894 116.609 36.0506 116.048 36.7731C115.496 37.4871 115.219 38.5453 115.219 39.9477C115.219 41.2312 115.496 42.2257 116.048 42.9311C116.609 43.6281 117.429 43.9766 118.509 43.9766C119.189 43.9766 119.771 43.8279 120.255 43.5304C120.74 43.2329 121.11 42.8036 121.365 42.2427L124.833 43.2371C124.314 44.4951 123.494 45.4726 122.372 46.1695C121.258 46.8665 120.039 47.215 118.713 47.215ZM114.148 40.9167V38.3413H123.277V40.9167H114.148ZM133.716 53.3348C132.934 53.3348 132.191 53.2073 131.485 52.9523C130.78 52.7058 130.147 52.3573 129.586 51.9069C129.033 51.4649 128.583 50.9464 128.234 50.3514L131.447 48.796C131.668 49.2039 131.983 49.5142 132.391 49.7267C132.807 49.9392 133.257 50.0454 133.742 50.0454C134.26 50.0454 134.749 49.9562 135.208 49.7777C135.667 49.6077 136.033 49.3484 136.305 49C136.585 48.66 136.717 48.235 136.7 47.725V43.7216H137.133V33.0629H140.168V47.776C140.168 48.116 140.151 48.4347 140.117 48.7322C140.091 49.0382 140.04 49.3399 139.964 49.6374C139.743 50.4789 139.331 51.1716 138.727 51.7156C138.132 52.2596 137.401 52.6633 136.534 52.9268C135.667 53.1988 134.728 53.3348 133.716 53.3348ZM133.41 47.215C132.144 47.215 131.035 46.8963 130.083 46.2588C129.131 45.6213 128.387 44.7543 127.852 43.6579C127.325 42.5614 127.061 41.3247 127.061 39.9477C127.061 38.5453 127.329 37.3001 127.864 36.2121C128.408 35.1156 129.169 34.2529 130.147 33.6239C131.124 32.995 132.272 32.6805 133.589 32.6805C134.898 32.6805 135.999 32.9992 136.891 33.6367C137.784 34.2742 138.459 35.1411 138.918 36.2376C139.377 37.3341 139.607 38.5708 139.607 39.9477C139.607 41.3247 139.373 42.5614 138.906 43.6579C138.447 44.7543 137.758 45.6213 136.84 46.2588C135.922 46.8963 134.779 47.215 133.41 47.215ZM133.971 44.1296C134.745 44.1296 135.361 43.9554 135.82 43.6069C136.288 43.2584 136.623 42.7696 136.827 42.1407C137.031 41.5117 137.133 40.7807 137.133 39.9477C137.133 39.1148 137.031 38.3838 136.827 37.7548C136.623 37.1258 136.296 36.6371 135.846 36.2886C135.404 35.9401 134.821 35.7659 134.099 35.7659C133.325 35.7659 132.688 35.9571 132.187 36.3396C131.694 36.7136 131.328 37.2193 131.09 37.8568C130.852 38.4858 130.733 39.1828 130.733 39.9477C130.733 40.7212 130.848 41.4267 131.077 42.0642C131.307 42.6931 131.66 43.1946 132.136 43.5686C132.611 43.9426 133.223 44.1296 133.971 44.1296ZM150.139 47.215C148.728 47.215 147.482 46.9133 146.403 46.3098C145.332 45.6978 144.49 44.8606 143.878 43.7981C143.275 42.7271 142.973 41.5032 142.973 40.1262C142.973 38.6218 143.271 37.3128 143.866 36.1994C144.461 35.0859 145.281 34.2232 146.326 33.6112C147.372 32.9907 148.575 32.6805 149.935 32.6805C151.379 32.6805 152.608 33.0205 153.619 33.7004C154.631 34.3804 155.379 35.3366 155.863 36.5691C156.348 37.8016 156.518 39.2508 156.373 40.9167H152.943V39.6417C152.943 38.2393 152.718 37.2321 152.268 36.6201C151.826 35.9996 151.099 35.6894 150.088 35.6894C148.906 35.6894 148.035 36.0506 147.474 36.7731C146.921 37.4871 146.645 38.5453 146.645 39.9477C146.645 41.2312 146.921 42.2257 147.474 42.9311C148.035 43.6281 148.855 43.9766 149.935 43.9766C150.615 43.9766 151.197 43.8279 151.681 43.5304C152.166 43.2329 152.535 42.8036 152.79 42.2427L156.258 43.2371C155.74 44.4951 154.92 45.4726 153.798 46.1695C152.684 46.8665 151.464 47.215 150.139 47.215ZM145.574 40.9167V38.3413H154.703V40.9167H145.574ZM159.507 31.1505V28.0906H162.975V31.1505H159.507ZM159.507 46.8325V33.0629H162.975V46.8325H159.507ZM174.064 47.215C173.503 47.215 173.04 47.181 172.675 47.113C172.318 47.0535 171.99 46.96 171.693 46.8325V43.4411C171.914 43.5261 172.182 43.6111 172.496 43.6961C172.811 43.7811 173.163 43.8236 173.554 43.8236C174.447 43.8236 175.157 43.6196 175.684 43.2116C176.219 42.8036 176.487 42.1747 176.487 41.3247C176.487 40.3557 176.13 39.663 175.416 39.2465C174.702 38.83 173.775 38.6218 172.636 38.6218V35.6129C173.155 35.5789 173.588 35.4726 173.937 35.2941C174.294 35.1071 174.562 34.8564 174.74 34.5419C174.919 34.2274 175.008 33.8534 175.008 33.4199C175.008 32.757 174.761 32.2427 174.268 31.8772C173.775 31.5117 173.223 31.329 172.611 31.329C172.203 31.329 171.82 31.4055 171.463 31.5585C171.115 31.7115 170.826 31.992 170.596 32.4C170.486 32.604 170.401 32.8717 170.341 33.2032C170.29 33.5347 170.265 33.8874 170.265 34.2614V46.8325H166.772V33.3179C166.772 32.995 166.784 32.706 166.81 32.451C166.844 32.196 166.899 31.941 166.976 31.686C167.239 30.8275 167.656 30.1348 168.225 29.6078C168.803 29.0808 169.47 28.6983 170.227 28.4603C170.992 28.2139 171.786 28.0906 172.611 28.0906C173.699 28.0906 174.689 28.3201 175.582 28.7791C176.474 29.2381 177.184 29.867 177.711 30.666C178.238 31.4565 178.501 32.349 178.501 33.3434C178.501 33.9894 178.395 34.5972 178.182 35.1666C177.97 35.7276 177.634 36.2249 177.175 36.6583C177.626 36.8453 178.021 37.0961 178.361 37.4106C178.709 37.7166 178.998 38.0778 179.228 38.4943C179.466 38.9023 179.644 39.3528 179.763 39.8457C179.891 40.3302 179.955 40.8402 179.955 41.3757C179.955 43.1946 179.449 44.6226 178.437 45.6596C177.426 46.6965 175.968 47.215 174.064 47.215Z" fill="white"/>
<path fill-rule="evenodd" clip-rule="evenodd" d="M38.1768 2.17969L48.4822 39.5785H42.1434V44.1112H34.7263L34.2103 42.2386V39.5785H33.4773L30.6744 29.4065L38.1768 2.17969ZM14.2719 46.3786L14.2719 44.6785L14.2719 41.8455H15.0526L17.8317 31.7599L10.3054 4.44663L0 41.8455H6.3388V46.3786H14.2719ZM24.5773 10.8983L33.9933 45.0697H28.2015V49.2115H20.9531V45.0697H15.1612L24.5773 10.8983Z" fill="white"/>
</svg>
