<svg width="996" height="696" viewBox="0 0 996 696" fill="none" xmlns="http://www.w3.org/2000/svg">
<path opacity="0.35" d="M197.087 216.935C239.875 130.111 243.855 16.4942 391.621 1.1138C539.387 -14.2666 379.68 134.576 579.686 143.506C779.693 152.437 911.538 -66.8576 981.689 75.0389C1051.84 216.935 840.391 235.293 857.307 327.079C874.223 418.865 940.394 576.638 884.671 654.036C828.948 731.434 455.304 685.293 314.006 646.594C172.708 607.895 -3.91414 398.027 0.0660807 281.93C4.04631 165.833 154.3 303.76 197.087 216.935Z" fill="#355B10"/>
<path d="M378.682 255.026C405.1 201.384 407.557 131.19 498.788 121.688C590.019 112.186 491.416 204.143 614.9 209.661C738.385 215.178 819.787 79.6943 863.098 167.36C906.41 255.026 775.861 266.368 786.305 323.075C796.748 379.781 837.603 477.256 803.199 525.074C768.796 572.892 538.107 544.385 450.869 520.476C363.631 496.567 254.583 366.907 257.041 295.181C259.498 223.454 352.265 308.668 378.682 255.026Z" fill="#355B10"/>
</svg>
