<svg width="285" height="285" viewBox="0 0 285 285" fill="none" xmlns="http://www.w3.org/2000/svg">
<circle cx="142.5" cy="142.5" r="142.5" fill="#457D0C"/>
<circle cx="142.5" cy="142.5" r="120.763" fill="#4B8710"/>
<circle cx="142.5" cy="141.292" r="95.3178" fill="#519210" stroke="#F8FAFF" stroke-width="5"/>
<circle cx="142.5" cy="142.5" r="70.0424" fill="#4D8B0F"/>
<circle cx="142.5" cy="142.5" r="59.1737" fill="#4D8B0F"/>
<rect x="91.7797" y="176.313" width="102.648" height="38.6441" fill="#519210"/>
<path d="M158.757 127.429C158.757 136.599 151.318 152.642 142.12 152.642C132.922 152.642 125.482 136.627 125.482 127.429C125.655 123.136 127.483 119.076 130.581 116.1C133.68 113.124 137.81 111.462 142.106 111.462C146.402 111.462 150.532 113.124 153.631 116.1C156.73 119.076 158.557 123.136 158.73 127.429H158.757ZM107.871 199.389C107.871 190.306 111.479 181.594 117.902 175.171C124.325 168.748 133.036 165.14 142.12 165.14C151.203 165.14 159.914 168.748 166.337 175.171C172.76 181.594 176.368 190.306 176.368 199.389M200.256 138.439C200.256 146.203 193.953 160.081 186.188 160.081C178.424 160.081 172.121 146.095 172.121 138.439C172.121 134.705 173.605 131.123 176.245 128.482C178.886 125.842 182.468 124.358 186.202 124.358C189.937 124.358 193.518 125.842 196.159 128.482C198.799 131.123 200.283 134.705 200.283 138.439H200.256ZM168.658 176.665C172.962 173.407 178.089 171.415 183.463 170.913C188.837 170.411 194.244 171.418 199.076 173.822C203.909 176.225 207.975 179.93 210.817 184.518C213.658 189.107 215.163 194.397 215.162 199.795M83.9833 138.439C83.9833 146.203 90.2866 160.081 98.0507 160.081C105.815 160.081 112.118 146.095 112.118 138.439C112.118 134.705 110.635 131.123 107.994 128.482C105.353 125.842 101.772 124.358 98.0372 124.358C94.3027 124.358 90.7211 125.842 88.0804 128.482C85.4397 131.123 83.9562 134.705 83.9562 138.439H83.9833ZM115.581 176.665C111.277 173.407 106.15 171.415 100.777 170.913C95.4026 170.411 89.9952 171.418 85.1627 173.822C80.3302 176.225 76.2643 179.93 73.4225 184.518C70.5808 189.107 69.0759 194.397 69.0772 199.795M109.223 209.29C111.289 216.425 115.617 222.695 121.555 227.157C127.493 231.619 134.719 234.032 142.147 234.032C149.574 234.032 156.801 231.619 162.738 227.157C168.676 222.695 173.004 216.425 175.07 209.29" fill="#519210"/>
<path d="M107.871 199.389C107.871 190.306 111.479 181.594 117.902 175.171C124.325 168.748 133.036 165.14 142.12 165.14C151.203 165.14 159.914 168.748 166.337 175.171C172.76 181.594 176.368 190.306 176.368 199.389M168.658 176.665C172.962 173.407 178.089 171.415 183.463 170.913C188.837 170.411 194.244 171.418 199.076 173.822C203.909 176.225 207.975 179.93 210.817 184.518C213.658 189.107 215.163 194.397 215.162 199.795M115.581 176.665C111.277 173.407 106.15 171.415 100.777 170.913C95.4026 170.411 89.9952 171.418 85.1627 173.822C80.3302 176.225 76.2643 179.93 73.4225 184.518C70.5808 189.107 69.0759 194.397 69.0772 199.795M109.223 209.29C111.289 216.425 115.617 222.695 121.555 227.157C127.493 231.619 134.719 234.032 142.147 234.032C149.574 234.032 156.801 231.619 162.738 227.157C168.676 222.695 173.004 216.425 175.07 209.29M158.757 127.429C158.757 136.599 151.318 152.642 142.12 152.642C132.922 152.642 125.482 136.627 125.482 127.429C125.655 123.136 127.483 119.076 130.581 116.1C133.68 113.124 137.81 111.462 142.106 111.462C146.402 111.462 150.532 113.124 153.631 116.1C156.73 119.076 158.557 123.136 158.73 127.429H158.757ZM200.256 138.439C200.256 146.203 193.953 160.081 186.188 160.081C178.424 160.081 172.121 146.095 172.121 138.439C172.121 134.705 173.605 131.123 176.245 128.482C178.886 125.842 182.468 124.358 186.202 124.358C189.937 124.358 193.518 125.842 196.159 128.482C198.799 131.123 200.283 134.705 200.283 138.439H200.256ZM83.9833 138.439C83.9833 146.203 90.2866 160.081 98.0507 160.081C105.815 160.081 112.118 146.095 112.118 138.439C112.118 134.705 110.635 131.123 107.994 128.482C105.353 125.842 101.772 124.358 98.0372 124.358C94.3027 124.358 90.7211 125.842 88.0804 128.482C85.4397 131.123 83.9562 134.705 83.9562 138.439H83.9833Z" stroke="#F8FAFF" stroke-width="5.53125" stroke-linecap="round" stroke-linejoin="round"/>
<path d="M142.12 184.943V217.406" stroke="#F8FAFF" stroke-width="5.53125" stroke-linecap="round" stroke-linejoin="round"/>
<path d="M125.888 201.175H158.351" stroke="#F8FAFF" stroke-width="5.53125" stroke-linecap="round" stroke-linejoin="round"/>
</svg>
