<svg width="138" height="57" viewBox="0 0 138 57" fill="none" xmlns="http://www.w3.org/2000/svg">
<g clip-path="url(#clip0_709_207)">
<path d="M8.66666 52.6665C8.66666 48.0694 10.4928 43.6606 13.7435 40.41C16.9941 37.1594 21.4029 35.3332 26 35.3332C30.5971 35.3332 35.0059 37.1594 38.2565 40.41C41.5071 43.6606 43.3333 48.0694 43.3333 52.6665H39C39 49.2187 37.6304 45.9121 35.1924 43.4741C32.7544 41.0361 29.4478 39.6665 26 39.6665C22.5522 39.6665 19.2456 41.0361 16.8076 43.4741C14.3696 45.9121 13 49.2187 13 52.6665H8.66666ZM26 33.1665C18.8175 33.1665 13 27.349 13 20.1665C13 12.984 18.8175 7.1665 26 7.1665C33.1825 7.1665 39 12.984 39 20.1665C39 27.349 33.1825 33.1665 26 33.1665ZM26 28.8332C30.7883 28.8332 34.6667 24.9548 34.6667 20.1665C34.6667 15.3782 30.7883 11.4998 26 11.4998C21.2117 11.4998 17.3333 15.3782 17.3333 20.1665C17.3333 24.9548 21.2117 28.8332 26 28.8332Z" fill="#43790D"/>
</g>
<path d="M49.3976 47.9106C49.8291 43.3684 52.0472 39.1837 55.564 36.2769C59.0809 33.3702 63.6084 31.9795 68.1506 32.411C72.6927 32.8424 76.8775 35.0605 79.7843 38.5773C82.691 42.0942 84.0816 46.6217 83.6502 51.1639L79.3686 50.7572C79.6922 47.3506 78.6492 43.955 76.4692 41.3173C74.2891 38.6797 71.1505 37.0161 67.7439 36.6925C64.3373 36.369 60.9416 37.4119 58.304 39.592C55.6664 41.772 54.0028 44.9106 53.6792 48.3172L49.3976 47.9106ZM68.3539 30.2702C61.2572 29.5961 56.0551 23.3022 56.7292 16.2055C57.4032 9.10877 63.6972 3.90671 70.7939 4.58075C77.8906 5.25479 83.0926 11.5487 82.4186 18.6454C81.7446 25.7421 75.4506 30.9442 68.3539 30.2702ZM68.7606 25.9886C73.4917 26.438 77.6877 22.9699 78.137 18.2388C78.5864 13.5077 75.1184 9.31168 70.3872 8.86232C65.6561 8.41296 61.4601 11.881 61.0108 16.6121C60.5614 21.3433 64.0294 25.5392 68.7606 25.9886Z" fill="#43790D"/>
<path d="M97.2781 52.2253C97.14 47.9867 98.6914 43.8668 101.591 40.772C104.491 37.6772 108.501 35.861 112.739 35.7229C116.978 35.5848 121.098 37.1362 124.193 40.0358C127.288 42.9353 129.104 46.9455 129.242 51.1842L125.246 51.3143C125.143 48.1353 123.781 45.1277 121.46 42.953C119.138 40.7783 116.048 39.6148 112.869 39.7184C109.691 39.8219 106.683 41.1841 104.508 43.5052C102.334 45.8263 101.17 48.9162 101.274 52.0952L97.2781 52.2253ZM112.674 33.7252C106.052 33.9409 100.513 28.7517 100.297 22.1292C100.082 15.5067 105.271 9.96809 111.893 9.75238C118.516 9.53668 124.055 14.7259 124.27 21.3483C124.486 27.9708 119.297 33.5095 112.674 33.7252ZM112.544 29.7297C116.959 29.5859 120.419 25.8935 120.275 21.4785C120.131 17.0635 116.439 13.604 112.024 13.7478C107.609 13.8917 104.149 17.5841 104.293 21.9991C104.437 26.414 108.129 29.8735 112.544 29.7297Z" fill="#43790D"/>
<defs>
<clipPath id="clip0_709_207">
<rect width="52" height="52" fill="white" transform="translate(0 5)"/>
</clipPath>
</defs>
</svg>
