<svg width="167" height="50" viewBox="0 0 167 50" fill="none" xmlns="http://www.w3.org/2000/svg">
<path d="M56.0563 21V6.96143H58.0938V13.0156H65.1131V6.96143H67.1604V21H65.1131V14.9361H58.0938V21H56.0563ZM72.8725 21.2925C72.0926 21.2925 71.4394 21.1495 70.913 20.8635C70.3865 20.571 69.9868 20.1876 69.7139 19.7131C69.4474 19.2322 69.3142 18.7057 69.3142 18.1338C69.3142 17.6008 69.4084 17.1329 69.5969 16.7299C69.7854 16.327 70.0648 15.9858 70.4353 15.7063C70.8058 15.4203 71.2607 15.1896 71.8002 15.0141C72.2681 14.8776 72.7978 14.7574 73.3892 14.6534C73.9807 14.5494 74.6014 14.4519 75.2513 14.3609C75.9077 14.2699 76.5577 14.1789 77.2011 14.088L76.4602 14.4974C76.4732 13.672 76.2977 13.0611 75.9337 12.6646C75.5763 12.2616 74.9588 12.0602 74.0814 12.0602C73.529 12.0602 73.022 12.1901 72.5606 12.4501C72.0991 12.7036 71.7774 13.1261 71.5954 13.7175L69.6944 13.1325C69.9543 12.2291 70.4483 11.511 71.1762 10.978C71.9106 10.4451 72.8855 10.1786 74.1009 10.1786C75.0433 10.1786 75.8622 10.3411 76.5577 10.6661C77.2596 10.9845 77.773 11.4915 78.098 12.1869C78.267 12.5314 78.371 12.8953 78.41 13.2788C78.449 13.6622 78.4685 14.075 78.4685 14.5169V21H76.6649V18.592L77.0159 18.904C76.5804 19.7099 76.0247 20.3111 75.3488 20.7075C74.6794 21.0975 73.8539 21.2925 72.8725 21.2925ZM73.2333 19.6254C73.8117 19.6254 74.3089 19.5247 74.7249 19.3232C75.1408 19.1152 75.4755 18.852 75.729 18.5335C75.9825 18.215 76.1482 17.8836 76.2262 17.5391C76.3367 17.2271 76.3984 16.8762 76.4114 16.4862C76.4309 16.0962 76.4407 15.7843 76.4407 15.5503L77.1036 15.794C76.4602 15.8915 75.8752 15.9793 75.3488 16.0573C74.8223 16.1352 74.3446 16.2132 73.9157 16.2912C73.4932 16.3627 73.1163 16.4505 72.7848 16.5545C72.5053 16.6519 72.2551 16.7689 72.0341 16.9054C71.8197 17.0419 71.6474 17.2076 71.5174 17.4026C71.3939 17.5976 71.3322 17.8348 71.3322 18.1143C71.3322 18.3873 71.4004 18.6407 71.5369 18.8747C71.6734 19.1022 71.8814 19.2842 72.1609 19.4207C72.4403 19.5571 72.7978 19.6254 73.2333 19.6254ZM81 21V10.4711H82.8133V13.0253L82.5599 12.6938C82.6898 12.3559 82.8588 12.0472 83.0668 11.7677C83.2748 11.4817 83.5153 11.2477 83.7882 11.0658C84.0547 10.8708 84.3504 10.7213 84.6754 10.6173C85.0069 10.5068 85.3448 10.4418 85.6893 10.4223C86.0338 10.3963 86.3652 10.4126 86.6837 10.4711V12.3819C86.3392 12.2909 85.9558 12.2649 85.5333 12.3039C85.1174 12.3429 84.7339 12.4761 84.3829 12.7036C84.0515 12.9181 83.7882 13.178 83.5933 13.4835C83.4048 13.789 83.2683 14.1302 83.1838 14.5072C83.0993 14.8776 83.0571 15.2708 83.0571 15.6868V21H81ZM87.5654 21V20.6783L93.5415 12.2941H88.1113V10.4711H96.7782V10.8025L90.8118 19.1769H96.4857V21H87.5654ZM98.9079 21L98.9176 6.96143H100.984V15.5406L105.118 10.4711H107.711L103.344 15.7355L108.16 21H105.391L100.984 15.9305V21H98.9079ZM109.338 21V6.66896H111.375V21H109.338ZM118.271 21.2827C117.543 21.2827 116.932 21.1657 116.438 20.9318C115.944 20.6978 115.541 20.3923 115.229 20.0154C114.923 19.6319 114.689 19.2159 114.527 18.7675C114.365 18.319 114.254 17.8803 114.196 17.4514C114.137 17.0224 114.108 16.6454 114.108 16.3205V10.4711H116.175V15.6478C116.175 16.0573 116.207 16.4797 116.272 16.9152C116.344 17.3441 116.474 17.7438 116.662 18.1143C116.857 18.4848 117.127 18.7837 117.471 19.0112C117.822 19.2387 118.277 19.3524 118.836 19.3524C119.2 19.3524 119.544 19.2939 119.869 19.1769C120.194 19.0534 120.477 18.8585 120.718 18.592C120.965 18.3255 121.156 17.9746 121.293 17.5391C121.436 17.1036 121.507 16.574 121.507 15.95L122.775 16.4277C122.775 17.3831 122.596 18.228 122.238 18.9625C121.881 19.6904 121.368 20.2591 120.698 20.6685C120.029 21.078 119.22 21.2827 118.271 21.2827ZM121.751 21V17.9583H121.507V10.4711H123.564V21H121.751ZM131.241 21.2925C130.234 21.2925 129.389 21.0487 128.707 20.5613C128.024 20.0673 127.508 19.4012 127.157 18.5627C126.806 17.7243 126.63 16.7787 126.63 15.7258C126.63 14.6729 126.802 13.7272 127.147 12.8888C127.498 12.0504 128.011 11.3907 128.687 10.9098C129.37 10.4223 130.208 10.1786 131.202 10.1786C132.19 10.1786 133.042 10.4223 133.757 10.9098C134.478 11.3907 135.034 12.0504 135.424 12.8888C135.814 13.7207 136.009 14.6664 136.009 15.7258C136.009 16.7787 135.814 17.7276 135.424 18.5725C135.04 19.4109 134.491 20.0738 133.776 20.5613C133.068 21.0487 132.223 21.2925 131.241 21.2925ZM126.289 21V6.96143H128.336V13.425H128.102V21H126.289ZM130.959 19.4499C131.609 19.4499 132.145 19.2842 132.567 18.9527C132.996 18.6212 133.315 18.176 133.523 17.6171C133.737 17.0517 133.844 16.4212 133.844 15.7258C133.844 15.0369 133.737 14.4129 133.523 13.854C133.315 13.295 132.993 12.8498 132.557 12.5184C132.122 12.1869 131.566 12.0212 130.89 12.0212C130.253 12.0212 129.727 12.1771 129.311 12.4891C128.902 12.8011 128.596 13.2365 128.395 13.7955C128.2 14.3544 128.102 14.9979 128.102 15.7258C128.102 16.4537 128.2 17.0971 128.395 17.6561C128.59 18.215 128.898 18.6537 129.321 18.9722C129.743 19.2907 130.289 19.4499 130.959 19.4499Z" fill="#43790D"/>
<path d="M56.3292 43.1982V26.3519H59.5113V33.2776H67.0453V26.3519H70.2274V43.1982H67.0453V36.2491H59.5113V43.1982H56.3292ZM79.1975 43.5491C77.9262 43.5491 76.8109 43.2644 75.8516 42.6951C74.8923 42.1258 74.1436 41.3419 73.6055 40.3436C73.0751 39.3375 72.8099 38.1833 72.8099 36.8808C72.8099 35.5627 73.0829 34.4045 73.6289 33.4062C74.1748 32.4001 74.9274 31.6163 75.8867 31.0548C76.846 30.4932 77.9496 30.2125 79.1975 30.2125C80.4688 30.2125 81.584 30.4971 82.5433 31.0665C83.5104 31.6358 84.2631 32.4235 84.8012 33.4296C85.3394 34.4279 85.6084 35.5783 85.6084 36.8808C85.6084 38.1911 85.3355 39.3492 84.7895 40.3553C84.2514 41.3536 83.4988 42.1375 82.5316 42.7068C81.5723 43.2683 80.461 43.5491 79.1975 43.5491ZM79.1975 40.5776C80.2192 40.5776 80.9796 40.2345 81.4788 39.5481C81.9857 38.854 82.2392 37.9649 82.2392 36.8808C82.2392 35.7577 81.9818 34.8608 81.4671 34.1901C80.9601 33.5193 80.2036 33.184 79.1975 33.184C78.5034 33.184 77.934 33.34 77.4895 33.6519C77.0449 33.9639 76.7134 34.3967 76.4951 34.9505C76.2845 35.5042 76.1792 36.1477 76.1792 36.8808C76.1792 38.0117 76.4327 38.9125 76.9396 39.5832C77.4544 40.2462 78.207 40.5776 79.1975 40.5776ZM96.7914 43.1982V37.2318C96.7914 36.9432 96.7758 36.5766 96.7446 36.1321C96.7134 35.6797 96.6159 35.2274 96.4521 34.775C96.2884 34.3227 96.0193 33.9444 95.6449 33.6402C95.2784 33.3361 94.7558 33.184 94.0773 33.184C93.8043 33.184 93.5118 33.2269 93.1999 33.3127C92.8879 33.3984 92.5954 33.5661 92.3225 33.8157C92.0495 34.0575 91.8233 34.4162 91.6439 34.892C91.4723 35.3677 91.3866 35.9995 91.3866 36.7872L89.5615 35.9215C89.5615 34.9232 89.7643 33.9873 90.1699 33.1138C90.5754 32.2403 91.1838 31.5344 91.9949 30.9963C92.8138 30.4581 93.8433 30.1891 95.0834 30.1891C96.0739 30.1891 96.8811 30.3568 97.505 30.6921C98.129 31.0275 98.6125 31.4525 98.9557 31.9673C99.3066 32.482 99.5562 33.0202 99.7044 33.5817C99.8526 34.1355 99.9423 34.6424 99.9735 35.1026C100.005 35.5627 100.02 35.8981 100.02 36.1087V43.1982H96.7914ZM88.1577 43.1982V26.3519H90.9888V35.009H91.3866V43.1982H88.1577ZM108.929 43.5491C107.634 43.5491 106.491 43.2722 105.501 42.7185C104.518 42.157 103.746 41.3887 103.185 40.4138C102.631 39.4311 102.354 38.308 102.354 37.0446C102.354 35.6641 102.627 34.463 103.173 33.4413C103.719 32.4196 104.471 31.628 105.431 31.0665C106.39 30.4971 107.494 30.2125 108.742 30.2125C110.067 30.2125 111.194 30.5244 112.123 31.1484C113.051 31.7723 113.737 32.6497 114.182 33.7806C114.626 34.9115 114.782 36.2413 114.649 37.7699H111.502V36.6C111.502 35.3132 111.296 34.3889 110.882 33.8274C110.477 33.2581 109.81 32.9734 108.882 32.9734C107.798 32.9734 106.998 33.3049 106.484 33.9678C105.977 34.6229 105.723 35.5939 105.723 36.8808C105.723 38.0585 105.977 38.971 106.484 39.6183C106.998 40.2578 107.751 40.5776 108.742 40.5776C109.365 40.5776 109.9 40.4411 110.344 40.1682C110.789 39.8952 111.128 39.5013 111.362 38.9866L114.544 39.8991C114.068 41.0534 113.316 41.9503 112.286 42.5898C111.265 43.2293 110.145 43.5491 108.929 43.5491ZM104.741 37.7699V35.4067H113.117V37.7699H104.741ZM122.696 49.1645C121.978 49.1645 121.296 49.0476 120.649 48.8136C120.001 48.5874 119.42 48.2676 118.905 47.8543C118.398 47.4487 117.985 46.973 117.665 46.427L120.613 44.9998C120.816 45.3741 121.105 45.6588 121.479 45.8538C121.861 46.0488 122.275 46.1463 122.719 46.1463C123.195 46.1463 123.643 46.0644 124.065 45.9006C124.486 45.7446 124.821 45.5067 125.071 45.1869C125.328 44.875 125.449 44.485 125.433 44.0171V40.3436H125.831V30.5634H128.615V44.0639C128.615 44.3758 128.6 44.6683 128.569 44.9413C128.545 45.222 128.498 45.4989 128.428 45.7719C128.225 46.544 127.847 47.1796 127.293 47.6788C126.748 48.1779 126.077 48.5484 125.281 48.7902C124.486 49.0398 123.624 49.1645 122.696 49.1645ZM122.415 43.5491C121.253 43.5491 120.235 43.2566 119.362 42.6717C118.488 42.0868 117.806 41.2912 117.314 40.2851C116.831 39.279 116.589 38.1443 116.589 36.8808C116.589 35.5939 116.835 34.4513 117.326 33.453C117.825 32.4469 118.523 31.6553 119.42 31.0782C120.317 30.501 121.37 30.2125 122.579 30.2125C123.78 30.2125 124.79 30.5049 125.609 31.0899C126.428 31.6748 127.048 32.4703 127.469 33.4764C127.89 34.4825 128.101 35.6173 128.101 36.8808C128.101 38.1443 127.886 39.279 127.457 40.2851C127.036 41.2912 126.404 42.0868 125.562 42.6717C124.72 43.2566 123.671 43.5491 122.415 43.5491ZM122.93 40.718C123.64 40.718 124.205 40.5581 124.626 40.2384C125.055 39.9186 125.363 39.4701 125.55 38.893C125.738 38.3158 125.831 37.6451 125.831 36.8808C125.831 36.1165 125.738 35.4457 125.55 34.8686C125.363 34.2915 125.063 33.843 124.65 33.5232C124.244 33.2035 123.71 33.0436 123.047 33.0436C122.337 33.0436 121.752 33.2191 121.292 33.57C120.84 33.9132 120.504 34.3772 120.286 34.9622C120.068 35.5393 119.958 36.1789 119.958 36.8808C119.958 37.5905 120.064 38.2379 120.274 38.8228C120.485 39.3999 120.808 39.8601 121.245 40.2033C121.682 40.5464 122.244 40.718 122.93 40.718ZM137.764 43.5491C136.47 43.5491 135.327 43.2722 134.337 42.7185C133.354 42.157 132.582 41.3887 132.02 40.4138C131.467 39.4311 131.19 38.308 131.19 37.0446C131.19 35.6641 131.463 34.463 132.009 33.4413C132.555 32.4196 133.307 31.628 134.267 31.0665C135.226 30.4971 136.329 30.2125 137.577 30.2125C138.903 30.2125 140.03 30.5244 140.958 31.1484C141.886 31.7723 142.573 32.6497 143.017 33.7806C143.462 34.9115 143.618 36.2413 143.485 37.7699H140.338V36.6C140.338 35.3132 140.132 34.3889 139.718 33.8274C139.313 33.2581 138.646 32.9734 137.718 32.9734C136.634 32.9734 135.834 33.3049 135.319 33.9678C134.812 34.6229 134.559 35.5939 134.559 36.8808C134.559 38.0585 134.812 38.971 135.319 39.6183C135.834 40.2578 136.587 40.5776 137.577 40.5776C138.201 40.5776 138.735 40.4411 139.18 40.1682C139.625 39.8952 139.964 39.5013 140.198 38.9866L143.38 39.8991C142.904 41.0534 142.152 41.9503 141.122 42.5898C140.1 43.2293 138.981 43.5491 137.764 43.5491ZM133.576 37.7699V35.4067H141.953V37.7699H133.576ZM146.361 28.8086V26.0009H149.543V28.8086H146.361ZM146.361 43.1982V30.5634H149.543V43.1982H146.361ZM159.718 43.5491C159.204 43.5491 158.779 43.5179 158.443 43.4555C158.116 43.4009 157.815 43.3151 157.542 43.1982V40.0863C157.745 40.1643 157.991 40.2423 158.279 40.3202C158.568 40.3982 158.892 40.4372 159.25 40.4372C160.069 40.4372 160.721 40.2501 161.204 39.8757C161.695 39.5013 161.941 38.9242 161.941 38.1443C161.941 37.2552 161.614 36.6195 160.958 36.2374C160.303 35.8552 159.453 35.6641 158.408 35.6641V32.9032C158.884 32.872 159.282 32.7745 159.601 32.6107C159.929 32.4391 160.175 32.2091 160.338 31.9205C160.502 31.6319 160.584 31.2888 160.584 30.891C160.584 30.2827 160.358 29.8108 159.906 29.4754C159.453 29.1401 158.946 28.9724 158.385 28.9724C158.01 28.9724 157.659 29.0426 157.332 29.183C157.012 29.3234 156.747 29.5807 156.536 29.9551C156.435 30.1423 156.357 30.388 156.302 30.6921C156.256 30.9963 156.232 31.32 156.232 31.6631V43.1982H153.027V30.7974C153.027 30.501 153.038 30.2359 153.062 30.0019C153.093 29.7679 153.144 29.5339 153.214 29.3C153.456 28.5122 153.838 27.8766 154.36 27.3931C154.891 26.9095 155.503 26.5585 156.197 26.3402C156.899 26.114 157.628 26.0009 158.385 26.0009C159.383 26.0009 160.292 26.2115 161.111 26.6326C161.929 27.0538 162.581 27.6309 163.064 28.3641C163.548 29.0894 163.79 29.9083 163.79 30.8208C163.79 31.4135 163.692 31.9712 163.497 32.4937C163.302 33.0085 162.994 33.4647 162.573 33.8625C162.986 34.0341 163.349 34.2642 163.661 34.5527C163.981 34.8335 164.246 35.165 164.456 35.5471C164.675 35.9215 164.839 36.3348 164.948 36.7872C165.065 37.2318 165.123 37.6997 165.123 38.1911C165.123 39.8601 164.659 41.1704 163.731 42.1219C162.803 43.0734 161.465 43.5491 159.718 43.5491Z" fill="#43790D"/>
<path fill-rule="evenodd" clip-rule="evenodd" d="M18.9121 37.9562L9.45604 3.63965L0 37.9562H5.81641V42.1157H13.0957V37.9562H18.9121Z" fill="#43790D"/>
<path fill-rule="evenodd" clip-rule="evenodd" d="M44.4865 35.8763L35.0304 1.55981L25.5744 35.8763H31.3908V40.0359H38.6701V35.8763H44.4865Z" fill="#43790D"/>
<mask id="path-5-inside-1_454_66" fill="white">
<path fill-rule="evenodd" clip-rule="evenodd" d="M32.0077 40.5559L22.5517 6.23938L13.0956 40.5559H18.912V44.7155H26.1913V40.5559H32.0077Z"/>
</mask>
<path fill-rule="evenodd" clip-rule="evenodd" d="M32.0077 40.5559L22.5517 6.23938L13.0956 40.5559H18.912V44.7155H26.1913V40.5559H32.0077Z" fill="#43790D"/>
<path d="M22.5517 6.23938L23.5542 5.96313L22.5517 2.32489L21.5491 5.96313L22.5517 6.23938ZM32.0077 40.5559V41.5958H33.3729L33.0102 40.2796L32.0077 40.5559ZM13.0956 40.5559L12.0931 40.2796L11.7304 41.5958H13.0956V40.5559ZM18.912 40.5559H19.9519V39.516H18.912V40.5559ZM18.912 44.7155H17.8722V45.7554H18.912V44.7155ZM26.1913 44.7155V45.7554H27.2312V44.7155H26.1913ZM26.1913 40.5559V39.516H25.1514V40.5559H26.1913ZM21.5491 6.51563L31.0052 40.8321L33.0102 40.2796L23.5542 5.96313L21.5491 6.51563ZM14.0982 40.8321L23.5542 6.51563L21.5491 5.96313L12.0931 40.2796L14.0982 40.8321ZM18.912 39.516H13.0956V41.5958H18.912V39.516ZM19.9519 44.7155V40.5559H17.8722V44.7155H19.9519ZM26.1913 43.6756H18.912V45.7554H26.1913V43.6756ZM25.1514 40.5559V44.7155H27.2312V40.5559H25.1514ZM32.0077 39.516H26.1913V41.5958H32.0077V39.516Z" fill="#F8FAFF" mask="url(#path-5-inside-1_454_66)"/>
</svg>
